<?xml version="1.0" encoding="UTF-8" standalone="no" ?>
<!DOCTYPE svg PUBLIC "-//W3C//DTD SVG 1.1//EN" "http://www.w3.org/Graphics/SVG/1.1/DTD/svg11.dtd">
<svg xmlns="http://www.w3.org/2000/svg" xmlns:xlink="http://www.w3.org/1999/xlink" version="1.1" width="900" height="180" viewBox="0 0 900 180" xml:space="preserve">
<desc>Created with Fabric.js 3.6.3</desc>
<defs>
</defs>
<g transform="matrix(1 0 0 1 449 31)"  >
<g style=""   >
		<g transform="matrix(1 0 0 1 0 62.21)" id="visual"  >
<path style="stroke: none; stroke-width: 1; stroke-dasharray: none; stroke-linecap: butt; stroke-dashoffset: 0; stroke-linejoin: miter; stroke-miterlimit: 4; fill: rgb(250,114,104); fill-rule: nonzero; opacity: 1;"  transform=" translate(-450, -212.21)" d="M 0 141 L 13.7 139.7 C 27.3 138.3 54.7 135.7 82 135.7 C 109.3 135.7 136.7 138.3 163.8 141.3 C 191 144.3 218 147.7 245.2 144.3 C 272.3 141 299.7 131 327 126.5 C 354.3 122 381.7 123 409 125.8 C 436.3 128.7 463.7 133.3 491 136.2 C 518.3 139 545.7 140 573 138.2 C 600.3 136.3 627.7 131.7 654.8 132.2 C 682 132.7 709 138.3 736.2 142.5 C 763.3 146.7 790.7 149.3 818 149.2 C 845.3 149 872.7 146 886.3 144.5 L 900 143 L 900 301 L 886.3 301 C 872.7 301 845.3 301 818 301 C 790.7 301 763.3 301 736.2 301 C 709 301 682 301 654.8 301 C 627.7 301 600.3 301 573 301 C 545.7 301 518.3 301 491 301 C 463.7 301 436.3 301 409 301 C 381.7 301 354.3 301 327 301 C 299.7 301 272.3 301 245.2 301 C 218 301 191 301 163.8 301 C 136.7 301 109.3 301 82 301 C 54.7 301 27.3 301 13.7 301 L 0 301 Z" stroke-linecap="round" />
</g>
		<g transform="matrix(1 0 0 1 0 74.5)" id="visual"  >
<path style="stroke: none; stroke-width: 1; stroke-dasharray: none; stroke-linecap: butt; stroke-dashoffset: 0; stroke-linejoin: miter; stroke-miterlimit: 4; fill: rgb(243,101,103); fill-rule: nonzero; opacity: 1;"  transform=" translate(-450, -224.5)" d="M 0 148 L 13.7 152.3 C 27.3 156.7 54.7 165.3 82 169.3 C 109.3 173.3 136.7 172.7 163.8 171.2 C 191 169.7 218 167.3 245.2 164.8 C 272.3 162.3 299.7 159.7 327 157.8 C 354.3 156 381.7 155 409 158 C 436.3 161 463.7 168 491 169.7 C 518.3 171.3 545.7 167.7 573 164.7 C 600.3 161.7 627.7 159.3 654.8 159 C 682 158.7 709 160.3 736.2 161.5 C 763.3 162.7 790.7 163.3 818 162.3 C 845.3 161.3 872.7 158.7 886.3 157.3 L 900 156 L 900 301 L 886.3 301 C 872.7 301 845.3 301 818 301 C 790.7 301 763.3 301 736.2 301 C 709 301 682 301 654.8 301 C 627.7 301 600.3 301 573 301 C 545.7 301 518.3 301 491 301 C 463.7 301 436.3 301 409 301 C 381.7 301 354.3 301 327 301 C 299.7 301 272.3 301 245.2 301 C 218 301 191 301 163.8 301 C 136.7 301 109.3 301 82 301 C 54.7 301 27.3 301 13.7 301 L 0 301 Z" stroke-linecap="round" />
</g>
		<g transform="matrix(1 0 0 1 0 85)" id="visual"  >
<path style="stroke: none; stroke-width: 1; stroke-dasharray: none; stroke-linecap: butt; stroke-dashoffset: 0; stroke-linejoin: miter; stroke-miterlimit: 4; fill: rgb(235,89,103); fill-rule: nonzero; opacity: 1;"  transform=" translate(-450, -235)" d="M 0 177 L 13.7 177.2 C 27.3 177.3 54.7 177.7 82 178.2 C 109.3 178.7 136.7 179.3 163.8 178.2 C 191 177 218 174 245.2 175.7 C 272.3 177.3 299.7 183.7 327 187 C 354.3 190.3 381.7 190.7 409 191.8 C 436.3 193 463.7 195 491 193.3 C 518.3 191.7 545.7 186.3 573 184.2 C 600.3 182 627.7 183 654.8 182.3 C 682 181.7 709 179.3 736.2 181.5 C 763.3 183.7 790.7 190.3 818 189 C 845.3 187.7 872.7 178.3 886.3 173.7 L 900 169 L 900 301 L 886.3 301 C 872.7 301 845.3 301 818 301 C 790.7 301 763.3 301 736.2 301 C 709 301 682 301 654.8 301 C 627.7 301 600.3 301 573 301 C 545.7 301 518.3 301 491 301 C 463.7 301 436.3 301 409 301 C 381.7 301 354.3 301 327 301 C 299.7 301 272.3 301 245.2 301 C 218 301 191 301 163.8 301 C 136.7 301 109.3 301 82 301 C 54.7 301 27.3 301 13.7 301 L 0 301 Z" stroke-linecap="round" />
</g>
		<g transform="matrix(1 0 0 1 0 99)" id="visual"  >
<path style="stroke: none; stroke-width: 1; stroke-dasharray: none; stroke-linecap: butt; stroke-dashoffset: 0; stroke-linejoin: miter; stroke-miterlimit: 4; fill: rgb(227,76,103); fill-rule: nonzero; opacity: 1;"  transform=" translate(-450, -249)" d="M 0 219 L 13.7 214.7 C 27.3 210.3 54.7 201.7 82 199.2 C 109.3 196.7 136.7 200.3 163.8 203.2 C 191 206 218 208 245.2 207 C 272.3 206 299.7 202 327 203.3 C 354.3 204.7 381.7 211.3 409 210.8 C 436.3 210.3 463.7 202.7 491 199.8 C 518.3 197 545.7 199 573 200 C 600.3 201 627.7 201 654.8 204.3 C 682 207.7 709 214.3 736.2 216.5 C 763.3 218.7 790.7 216.3 818 212.3 C 845.3 208.3 872.7 202.7 886.3 199.8 L 900 197 L 900 301 L 886.3 301 C 872.7 301 845.3 301 818 301 C 790.7 301 763.3 301 736.2 301 C 709 301 682 301 654.8 301 C 627.7 301 600.3 301 573 301 C 545.7 301 518.3 301 491 301 C 463.7 301 436.3 301 409 301 C 381.7 301 354.3 301 327 301 C 299.7 301 272.3 301 245.2 301 C 218 301 191 301 163.8 301 C 136.7 301 109.3 301 82 301 C 54.7 301 27.3 301 13.7 301 L 0 301 Z" stroke-linecap="round" />
</g>
		<g transform="matrix(1 0 0 1 0 108.35)" id="visual"  >
<path style="stroke: none; stroke-width: 1; stroke-dasharray: none; stroke-linecap: butt; stroke-dashoffset: 0; stroke-linejoin: miter; stroke-miterlimit: 4; fill: rgb(218,63,103); fill-rule: nonzero; opacity: 1;"  transform=" translate(-450, -258.35)" d="M 0 229 L 13.7 229.8 C 27.3 230.7 54.7 232.3 82 232.7 C 109.3 233 136.7 232 163.8 230.2 C 191 228.3 218 225.7 245.2 224 C 272.3 222.3 299.7 221.7 327 221.5 C 354.3 221.3 381.7 221.7 409 224.8 C 436.3 228 463.7 234 491 236.8 C 518.3 239.7 545.7 239.3 573 235.5 C 600.3 231.7 627.7 224.3 654.8 220.3 C 682 216.3 709 215.7 736.2 215.7 C 763.3 215.7 790.7 216.3 818 219.8 C 845.3 223.3 872.7 229.7 886.3 232.8 L 900 236 L 900 301 L 886.3 301 C 872.7 301 845.3 301 818 301 C 790.7 301 763.3 301 736.2 301 C 709 301 682 301 654.8 301 C 627.7 301 600.3 301 573 301 C 545.7 301 518.3 301 491 301 C 463.7 301 436.3 301 409 301 C 381.7 301 354.3 301 327 301 C 299.7 301 272.3 301 245.2 301 C 218 301 191 301 163.8 301 C 136.7 301 109.3 301 82 301 C 54.7 301 27.3 301 13.7 301 L 0 301 Z" stroke-linecap="round" />
</g>
		<g transform="matrix(1 0 0 1 0 121.24)" id="visual"  >
<path style="stroke: none; stroke-width: 1; stroke-dasharray: none; stroke-linecap: butt; stroke-dashoffset: 0; stroke-linejoin: miter; stroke-miterlimit: 4; fill: rgb(208,50,103); fill-rule: nonzero; opacity: 1;"  transform=" translate(-450, -271.24)" d="M 0 256 L 13.7 255.5 C 27.3 255 54.7 254 82 252.8 C 109.3 251.7 136.7 250.3 163.8 250.7 C 191 251 218 253 245.2 254.5 C 272.3 256 299.7 257 327 254.3 C 354.3 251.7 381.7 245.3 409 246 C 436.3 246.7 463.7 254.3 491 257.3 C 518.3 260.3 545.7 258.7 573 256.5 C 600.3 254.3 627.7 251.7 654.8 249.3 C 682 247 709 245 736.2 243.5 C 763.3 242 790.7 241 818 241.7 C 845.3 242.3 872.7 244.7 886.3 245.8 L 900 247 L 900 301 L 886.3 301 C 872.7 301 845.3 301 818 301 C 790.7 301 763.3 301 736.2 301 C 709 301 682 301 654.8 301 C 627.7 301 600.3 301 573 301 C 545.7 301 518.3 301 491 301 C 463.7 301 436.3 301 409 301 C 381.7 301 354.3 301 327 301 C 299.7 301 272.3 301 245.2 301 C 218 301 191 301 163.8 301 C 136.7 301 109.3 301 82 301 C 54.7 301 27.3 301 13.7 301 L 0 301 Z" stroke-linecap="round" />
</g>
		<g transform="matrix(1 0 0 1 0 133.5)" id="visual"  >
<path style="stroke: none; stroke-width: 1; stroke-dasharray: none; stroke-linecap: butt; stroke-dashoffset: 0; stroke-linejoin: miter; stroke-miterlimit: 4; fill: rgb(198,35,104); fill-rule: nonzero; opacity: 1;"  transform=" translate(-450, -283.5)" d="M 0 276 L 13.7 275.5 C 27.3 275 54.7 274 82 272.8 C 109.3 271.7 136.7 270.3 163.8 270.2 C 191 270 218 271 245.2 271.7 C 272.3 272.3 299.7 272.7 327 271.8 C 354.3 271 381.7 269 409 268.8 C 436.3 268.7 463.7 270.3 491 269.7 C 518.3 269 545.7 266 573 266 C 600.3 266 627.7 269 654.8 271.7 C 682 274.3 709 276.7 736.2 277.7 C 763.3 278.7 790.7 278.3 818 276.8 C 845.3 275.3 872.7 272.7 886.3 271.3 L 900 270 L 900 301 L 886.3 301 C 872.7 301 845.3 301 818 301 C 790.7 301 763.3 301 736.2 301 C 709 301 682 301 654.8 301 C 627.7 301 600.3 301 573 301 C 545.7 301 518.3 301 491 301 C 463.7 301 436.3 301 409 301 C 381.7 301 354.3 301 327 301 C 299.7 301 272.3 301 245.2 301 C 218 301 191 301 163.8 301 C 136.7 301 109.3 301 82 301 C 54.7 301 27.3 301 13.7 301 L 0 301 Z" stroke-linecap="round" />
</g>
</g>
</g>
</svg>