<svg id="visual" viewBox="0 0 900 300" width="900" height="300" xmlns="http://www.w3.org/2000/svg" xmlns:xlink="http://www.w3.org/1999/xlink" version="1.1"><path d="M0 141L13.7 139.7C27.3 138.3 54.7 135.7 82 135.7C109.3 135.7 136.7 138.3 163.8 141.3C191 144.3 218 147.7 245.2 144.3C272.3 141 299.7 131 327 126.5C354.3 122 381.7 123 409 125.8C436.3 128.7 463.7 133.3 491 136.2C518.3 139 545.7 140 573 138.2C600.3 136.3 627.7 131.7 654.8 132.2C682 132.7 709 138.3 736.2 142.5C763.3 146.7 790.7 149.3 818 149.2C845.3 149 872.7 146 886.3 144.5L900 143L900 301L886.3 301C872.7 301 845.3 301 818 301C790.7 301 763.3 301 736.2 301C709 301 682 301 654.8 301C627.7 301 600.3 301 573 301C545.7 301 518.3 301 491 301C463.7 301 436.3 301 409 301C381.7 301 354.3 301 327 301C299.7 301 272.3 301 245.2 301C218 301 191 301 163.8 301C136.7 301 109.3 301 82 301C54.7 301 27.3 301 13.7 301L0 301Z" fill="#fa7268"></path><path d="M0 148L13.7 152.3C27.3 156.7 54.7 165.3 82 169.3C109.3 173.3 136.7 172.7 163.8 171.2C191 169.7 218 167.3 245.2 164.8C272.3 162.3 299.7 159.7 327 157.8C354.3 156 381.7 155 409 158C436.3 161 463.7 168 491 169.7C518.3 171.3 545.7 167.7 573 164.7C600.3 161.7 627.7 159.3 654.8 159C682 158.7 709 160.3 736.2 161.5C763.3 162.7 790.7 163.3 818 162.3C845.3 161.3 872.7 158.7 886.3 157.3L900 156L900 301L886.3 301C872.7 301 845.3 301 818 301C790.7 301 763.3 301 736.2 301C709 301 682 301 654.8 301C627.7 301 600.3 301 573 301C545.7 301 518.3 301 491 301C463.7 301 436.3 301 409 301C381.7 301 354.3 301 327 301C299.7 301 272.3 301 245.2 301C218 301 191 301 163.8 301C136.7 301 109.3 301 82 301C54.7 301 27.3 301 13.7 301L0 301Z" fill="#f36567"></path><path d="M0 177L13.7 177.2C27.3 177.3 54.7 177.7 82 178.2C109.3 178.7 136.7 179.3 163.8 178.2C191 177 218 174 245.2 175.7C272.3 177.3 299.7 183.7 327 187C354.3 190.3 381.7 190.7 409 191.8C436.3 193 463.7 195 491 193.3C518.3 191.7 545.7 186.3 573 184.2C600.3 182 627.7 183 654.8 182.3C682 181.7 709 179.3 736.2 181.5C763.3 183.7 790.7 190.3 818 189C845.3 187.7 872.7 178.3 886.3 173.7L900 169L900 301L886.3 301C872.7 301 845.3 301 818 301C790.7 301 763.3 301 736.2 301C709 301 682 301 654.8 301C627.7 301 600.3 301 573 301C545.7 301 518.3 301 491 301C463.7 301 436.3 301 409 301C381.7 301 354.3 301 327 301C299.7 301 272.3 301 245.2 301C218 301 191 301 163.8 301C136.7 301 109.3 301 82 301C54.7 301 27.3 301 13.7 301L0 301Z" fill="#eb5967"></path><path d="M0 219L13.7 214.7C27.3 210.3 54.7 201.7 82 199.2C109.3 196.7 136.7 200.3 163.8 203.2C191 206 218 208 245.2 207C272.3 206 299.7 202 327 203.3C354.3 204.7 381.7 211.3 409 210.8C436.3 210.3 463.7 202.7 491 199.8C518.3 197 545.7 199 573 200C600.3 201 627.7 201 654.8 204.3C682 207.7 709 214.3 736.2 216.5C763.3 218.7 790.7 216.3 818 212.3C845.3 208.3 872.7 202.7 886.3 199.8L900 197L900 301L886.3 301C872.7 301 845.3 301 818 301C790.7 301 763.3 301 736.2 301C709 301 682 301 654.8 301C627.7 301 600.3 301 573 301C545.7 301 518.3 301 491 301C463.7 301 436.3 301 409 301C381.7 301 354.3 301 327 301C299.7 301 272.3 301 245.2 301C218 301 191 301 163.8 301C136.7 301 109.3 301 82 301C54.7 301 27.3 301 13.7 301L0 301Z" fill="#e34c67"></path><path d="M0 229L13.7 229.8C27.3 230.7 54.7 232.3 82 232.7C109.3 233 136.7 232 163.8 230.2C191 228.3 218 225.7 245.2 224C272.3 222.3 299.7 221.7 327 221.5C354.3 221.3 381.7 221.7 409 224.8C436.3 228 463.7 234 491 236.8C518.3 239.7 545.7 239.3 573 235.5C600.3 231.7 627.7 224.3 654.8 220.3C682 216.3 709 215.7 736.2 215.7C763.3 215.7 790.7 216.3 818 219.8C845.3 223.3 872.7 229.7 886.3 232.8L900 236L900 301L886.3 301C872.7 301 845.3 301 818 301C790.7 301 763.3 301 736.2 301C709 301 682 301 654.8 301C627.7 301 600.3 301 573 301C545.7 301 518.3 301 491 301C463.7 301 436.3 301 409 301C381.7 301 354.3 301 327 301C299.7 301 272.3 301 245.2 301C218 301 191 301 163.8 301C136.7 301 109.3 301 82 301C54.7 301 27.3 301 13.7 301L0 301Z" fill="#da3f67"></path><path d="M0 256L13.7 255.5C27.3 255 54.7 254 82 252.8C109.3 251.7 136.7 250.3 163.8 250.7C191 251 218 253 245.2 254.5C272.3 256 299.7 257 327 254.3C354.3 251.7 381.7 245.3 409 246C436.3 246.7 463.7 254.3 491 257.3C518.3 260.3 545.7 258.7 573 256.5C600.3 254.3 627.7 251.7 654.8 249.3C682 247 709 245 736.2 243.5C763.3 242 790.7 241 818 241.7C845.3 242.3 872.7 244.7 886.3 245.8L900 247L900 301L886.3 301C872.7 301 845.3 301 818 301C790.7 301 763.3 301 736.2 301C709 301 682 301 654.8 301C627.7 301 600.3 301 573 301C545.7 301 518.3 301 491 301C463.7 301 436.3 301 409 301C381.7 301 354.3 301 327 301C299.7 301 272.3 301 245.2 301C218 301 191 301 163.8 301C136.7 301 109.3 301 82 301C54.7 301 27.3 301 13.7 301L0 301Z" fill="#d03267"></path><path d="M0 276L13.7 275.5C27.3 275 54.7 274 82 272.8C109.3 271.7 136.7 270.3 163.8 270.2C191 270 218 271 245.2 271.7C272.3 272.3 299.7 272.7 327 271.8C354.3 271 381.7 269 409 268.8C436.3 268.7 463.7 270.3 491 269.7C518.3 269 545.7 266 573 266C600.3 266 627.7 269 654.8 271.7C682 274.3 709 276.7 736.2 277.7C763.3 278.7 790.7 278.3 818 276.8C845.3 275.3 872.7 272.7 886.3 271.3L900 270L900 301L886.3 301C872.7 301 845.3 301 818 301C790.7 301 763.3 301 736.2 301C709 301 682 301 654.8 301C627.7 301 600.3 301 573 301C545.7 301 518.3 301 491 301C463.7 301 436.3 301 409 301C381.7 301 354.3 301 327 301C299.7 301 272.3 301 245.2 301C218 301 191 301 163.8 301C136.7 301 109.3 301 82 301C54.7 301 27.3 301 13.7 301L0 301Z" fill="#c62368"></path></svg>